<svg width="32" height="32" viewBox="0 0 32 32" fill="none" xmlns="http://www.w3.org/2000/svg">
<path d="M28.7279 10.5869C28.3528 10.2119 27.8442 10.0013 27.3139 10.0013C26.7836 10.0013 26.275 10.2119 25.8999 10.5869L15.9999 20.4869L6.0999 10.5869C5.7227 10.2226 5.21749 10.021 4.6931 10.0255C4.16871 10.0301 3.66708 10.2404 3.29626 10.6112C2.92545 10.9821 2.71511 11.4837 2.71055 12.0081C2.706 12.5325 2.90759 13.0377 3.2719 13.4149L14.5859 24.7289C14.961 25.1038 15.4696 25.3145 15.9999 25.3145C16.5302 25.3145 17.0388 25.1038 17.4139 24.7289L28.7279 13.4149C29.1028 13.0398 29.3135 12.5312 29.3135 12.0009C29.3135 11.4706 29.1028 10.9619 28.7279 10.5869Z" fill="#6A96D4"/>
</svg>
